REM DIRINDEX 1\4,1\2\5,1\2\6,1\3\7,1\3\8
REM DIRNAME cjc124,folder01,folder02,folder03,folder04,folder05,folder06,folder07
TITLE ""
FILE "057_Day29_Check2_Phrases.mp3" MP3
  TRACK 01 AUDIO
    TITLE "0:"
    INDEX 01 00:00:00
  TRACK 02 AUDIO
    TITLE "4:cjc124_1851"
    INDEX 01 00:00:33
  TRACK 03 AUDIO
    TITLE "0:"
    INDEX 01 00:01:56
  TRACK 04 AUDIO
    TITLE "5:cjc124_1852"
    INDEX 01 00:02:10
  TRACK 05 AUDIO
    TITLE "0:"
    INDEX 01 00:03:61
  TRACK 06 AUDIO
    TITLE "6:cjc124_1853"
    INDEX 01 00:04:07
  TRACK 07 AUDIO
    TITLE "0:"
    INDEX 01 00:05:71
  TRACK 08 AUDIO
    TITLE "5:cjc124_1854"
    INDEX 01 00:06:33
  TRACK 09 AUDIO
    TITLE "0:"
    INDEX 01 00:08:19
  TRACK 10 AUDIO
    TITLE "6:cjc124_1855"
    INDEX 01 00:08:38
  TRACK 11 AUDIO
    TITLE "0:"
    INDEX 01 00:09:63
  TRACK 12 AUDIO
    TITLE "5:cjc124_1856"
    INDEX 01 00:10:25
  TRACK 13 AUDIO
    TITLE "0:"
    INDEX 01 00:12:09
  TRACK 14 AUDIO
    TITLE "6:cjc124_1857"
    INDEX 01 00:12:26
  TRACK 15 AUDIO
    TITLE "0:"
    INDEX 01 00:13:65
  TRACK 16 AUDIO
    TITLE "5:cjc124_1858"
    INDEX 01 00:14:31
  TRACK 17 AUDIO
    TITLE "0:"
    INDEX 01 00:16:18
  TRACK 18 AUDIO
    TITLE "6:cjc124_1859"
    INDEX 01 00:16:42
  TRACK 19 AUDIO
    TITLE "0:"
    INDEX 01 00:17:74
  TRACK 20 AUDIO
    TITLE "5:cjc124_1860"
    INDEX 01 00:18:37
  TRACK 21 AUDIO
    TITLE "0:"
    INDEX 01 00:20:24
  TRACK 22 AUDIO
    TITLE "6:cjc124_1861"
    INDEX 01 00:20:47
  TRACK 23 AUDIO
    TITLE "0:"
    INDEX 01 00:22:03
  TRACK 24 AUDIO
    TITLE "5:cjc124_1862"
    INDEX 01 00:22:46
  TRACK 25 AUDIO
    TITLE "0:"
    INDEX 01 00:24:31
  TRACK 26 AUDIO
    TITLE "6:cjc124_1863"
    INDEX 01 00:24:57
  TRACK 27 AUDIO
    TITLE "0:"
    INDEX 01 00:26:24
  TRACK 28 AUDIO
    TITLE "5:cjc124_1864"
    INDEX 01 00:26:60
  TRACK 29 AUDIO
    TITLE "0:"
    INDEX 01 00:29:11
  TRACK 30 AUDIO
    TITLE "6:cjc124_1865"
    INDEX 01 00:29:31
  TRACK 31 AUDIO
    TITLE "0:"
    INDEX 01 00:31:20
  TRACK 32 AUDIO
    TITLE "5:cjc124_1866"
    INDEX 01 00:31:61
  TRACK 33 AUDIO
    TITLE "0:"
    INDEX 01 00:33:22
  TRACK 34 AUDIO
    TITLE "6:cjc124_1867"
    INDEX 01 00:33:40
  TRACK 35 AUDIO
    TITLE "0:"
    INDEX 01 00:35:02
  TRACK 36 AUDIO
    TITLE "5:cjc124_1868"
    INDEX 01 00:35:37
  TRACK 37 AUDIO
    TITLE "0:"
    INDEX 01 00:37:30
  TRACK 38 AUDIO
    TITLE "6:cjc124_1869"
    INDEX 01 00:37:46
  TRACK 39 AUDIO
    TITLE "0:"
    INDEX 01 00:39:03
  TRACK 40 AUDIO
    TITLE "5:cjc124_1870"
    INDEX 01 00:39:41
  TRACK 41 AUDIO
    TITLE "0:"
    INDEX 01 00:41:26
  TRACK 42 AUDIO
    TITLE "6:cjc124_1871"
    INDEX 01 00:41:47
  TRACK 43 AUDIO
    TITLE "0:"
    INDEX 01 00:43:21
  TRACK 44 AUDIO
    TITLE "5:cjc124_1872"
    INDEX 01 00:43:60
  TRACK 45 AUDIO
    TITLE "0:"
    INDEX 01 00:45:24
  TRACK 46 AUDIO
    TITLE "6:cjc124_1873"
    INDEX 01 00:45:47
  TRACK 47 AUDIO
    TITLE "0:"
    INDEX 01 00:46:51
  TRACK 48 AUDIO
    TITLE "5:cjc124_1874"
    INDEX 01 00:47:13
  TRACK 49 AUDIO
    TITLE "0:"
    INDEX 01 00:49:06
  TRACK 50 AUDIO
    TITLE "6:cjc124_1875"
    INDEX 01 00:49:27
  TRACK 51 AUDIO
    TITLE "0:"
    INDEX 01 00:50:56
  TRACK 52 AUDIO
    TITLE "5:cjc124_1876"
    INDEX 01 00:51:22
  TRACK 53 AUDIO
    TITLE "0:"
    INDEX 01 00:52:63
  TRACK 54 AUDIO
    TITLE "6:cjc124_1877"
    INDEX 01 00:53:06
  TRACK 55 AUDIO
    TITLE "0:"
    INDEX 01 00:54:48
  TRACK 56 AUDIO
    TITLE "5:cjc124_1878"
    INDEX 01 00:55:14
  TRACK 57 AUDIO
    TITLE "0:"
    INDEX 01 00:56:47
  TRACK 58 AUDIO
    TITLE "6:cjc124_1879"
    INDEX 01 00:56:69
  TRACK 59 AUDIO
    TITLE "0:"
    INDEX 01 00:58:26
  TRACK 60 AUDIO
    TITLE "5:cjc124_1880"
    INDEX 01 00:58:69
  TRACK 61 AUDIO
    TITLE "0:"
    INDEX 01 01:00:49
  TRACK 62 AUDIO
    TITLE "6:cjc124_1881"
    INDEX 01 01:00:70
  TRACK 63 AUDIO
    TITLE "0:"
    INDEX 01 01:02:61
  TRACK 64 AUDIO
    TITLE "5:cjc124_1882"
    INDEX 01 01:03:26
  TRACK 65 AUDIO
    TITLE "0:"
    INDEX 01 01:05:07
  TRACK 66 AUDIO
    TITLE "6:cjc124_1883"
    INDEX 01 01:05:30
  TRACK 67 AUDIO
    TITLE "0:"
    INDEX 01 01:06:57
